<?xml version="1.0" standalone="no"?><!DOCTYPE svg PUBLIC "-//W3C//DTD SVG 1.1//EN" "http://www.w3.org/Graphics/SVG/1.1/DTD/svg11.dtd"><svg t="1655709912024" class="icon" viewBox="0 0 1024 1024" version="1.1" xmlns="http://www.w3.org/2000/svg" p-id="9312" xmlns:xlink="http://www.w3.org/1999/xlink" width="200" height="200"><defs><style type="text/css">@font-face { font-family: feedback-iconfont; src: url("//at.alicdn.com/t/font_1031158_u69w8yhxdu.woff2?t=1630033759944") format("woff2"), url("//at.alicdn.com/t/font_1031158_u69w8yhxdu.woff?t=1630033759944") format("woff"), url("//at.alicdn.com/t/font_1031158_u69w8yhxdu.ttf?t=1630033759944") format("truetype"); }
</style></defs><path d="M512 32c265.088 0 480 214.912 480 480 0 261.76-209.504 474.56-469.952 479.904L512 992C246.912 992 32 777.088 32 512 32 250.24 241.504 37.44 501.952 32.096L512 32z m0 608c-171.552 0-271.136 58.88-286.08 174.016A414.464 414.464 0 0 0 512 928c110.816 0 211.52-43.328 286.048-113.92C783.136 698.88 683.52 640 512 640z m0-384a160 160 0 1 0 0 320 160 160 0 0 0 0-320z" fill="#2eaae0" p-id="9313"></path></svg>